<svg xmlns="http://www.w3.org/2000/svg" viewBox="0 0 1200 800" width="100%" height="100%">
  <defs>
    <filter id="shadow" x="-10%" y="-10%" width="130%" height="130%">
      <feDropShadow dx="0" dy="15" stdDeviation="25" flood-color="#000000" flood-opacity="0.8"/>
    </filter>
  </defs>

  <rect width="1200" height="800" fill="#050505" />
  
  <g opacity="0.3">
    <text x="80" y="60" fill="#FFFFFF" font-family="system-ui, -apple-system, sans-serif" font-size="20" font-weight="bold">ProjectFlow</text>
    <rect x="80" y="140" width="300" height="110" rx="8" fill="#111111" stroke="rgba(255,255,255,0.05)" />
    <rect x="400" y="140" width="300" height="110" rx="8" fill="#111111" stroke="rgba(255,255,255,0.05)" />
  </g>
  
  <rect width="1200" height="800" fill="#000000" fill-opacity="0.75" />

  <g transform="translate(300, 150)" filter="url(#shadow)">
    <rect width="600" height="480" rx="12" fill="#0D1117" stroke="rgba(255,255,255,0.15)" stroke-width="1" />
    
    <circle cx="35" cy="40" r="7" fill="transparent" stroke="#888888" stroke-width="2" />
    <line x1="40" y1="45" x2="46" y2="51" stroke="#888888" stroke-width="2" stroke-linecap="round" />
    
    <text x="65" y="46" fill="#FFFFFF" font-family="system-ui, -apple-system, sans-serif" font-size="18" font-weight="400">Buscar tareas, comandos o ir a...</text>
    <rect x="330" y="28" width="2" height="22" fill="#58A6FF" /> <line x1="0" y1="75" x2="600" y2="75" stroke="rgba(255,255,255,0.08)" stroke-width="1" />

    <text x="20" y="110" fill="#666666" font-family="system-ui, -apple-system, sans-serif" font-size="11" font-weight="600" letter-spacing="1">ACCIONES</text>
    
    <rect x="10" y="125" width="580" height="44" rx="8" fill="rgba(88,166,255,0.1)" stroke="rgba(88,166,255,0.2)" stroke-width="1" />
    <rect x="10" y="135" width="3" height="24" rx="1.5" fill="#58A6FF" /> <text x="35" y="152" fill="#58A6FF" font-family="system-ui, -apple-system, sans-serif" font-size="15" font-weight="500">Crear nueva tarea...</text>
    <rect x="550" y="137" width="24" height="20" rx="4" fill="rgba(88,166,255,0.15)" />
    <text x="562" y="151" fill="#58A6FF" font-family="system-ui, -apple-system, sans-serif" font-size="12" font-weight="600" text-anchor="middle">C</text>

    <text x="35" y="196" fill="#CCCCCC" font-family="system-ui, -apple-system, sans-serif" font-size="15">Cambiar a tema claro</text>
    <rect x="510" y="181" width="64" height="20" rx="4" fill="rgba(255,255,255,0.05)" />
    <text x="542" y="195" fill="#888888" font-family="system-ui, -apple-system, sans-serif" font-size="12" text-anchor="middle">⇧ ⌘ D</text>

    <text x="20" y="250" fill="#666666" font-family="system-ui, -apple-system, sans-serif" font-size="11" font-weight="600" letter-spacing="1">TAREAS RECIENTES</text>

    <circle cx="35" cy="285" r="5" fill="#F85149" />
    <text x="55" y="290" fill="#EEEEEE" font-family="system-ui, -apple-system, sans-serif" font-size="15">Crear componente DuePill</text>
    <text x="250" y="290" fill="#555555" font-family="system-ui, -apple-system, sans-serif" font-size="13">Haciendo</text>
    <text x="562" y="290" fill="#666666" font-family="system-ui, -apple-system, sans-serif" font-size="16" text-anchor="middle">↵</text>

    <circle cx="35" cy="335" r="5" fill="#E2B93B" />
    <text x="55" y="340" fill="#EEEEEE" font-family="system-ui, -apple-system, sans-serif" font-size="15">Bocetos isotipo El Chañi</text>
    <text x="235" y="340" fill="#555555" font-family="system-ui, -apple-system, sans-serif" font-size="13">Hecho</text>

    <circle cx="35" cy="385" r="5" fill="#3FB950" />
    <text x="55" y="390" fill="#EEEEEE" font-family="system-ui, -apple-system, sans-serif" font-size="15">Práctica de listening B1</text>
    <text x="235" y="390" fill="#555555" font-family="system-ui, -apple-system, sans-serif" font-size="13">Ideas</text>

    <line x1="0" y1="440" x2="600" y2="440" stroke="rgba(255,255,255,0.05)" stroke-width="1" />
    <rect x="20" y="450" width="16" height="16" rx="3" fill="rgba(255,255,255,0.05)" />
    <path d="M 28 454 L 28 462 M 25 457 L 28 454 L 31 457" stroke="#888888" stroke-width="1.5" stroke-linecap="round" stroke-linejoin="round" fill="transparent" />
    
    <rect x="40" y="450" width="16" height="16" rx="3" fill="rgba(255,255,255,0.05)" />
    <path d="M 48 454 L 48 462 M 45 459 L 48 462 L 51 459" stroke="#888888" stroke-width="1.5" stroke-linecap="round" stroke-linejoin="round" fill="transparent" />
    
    <text x="65" y="462" fill="#666666" font-family="system-ui, -apple-system, sans-serif" font-size="12">Navegar</text>

    <rect x="130" y="450" width="24" height="16" rx="3" fill="rgba(255,255,255,0.05)" />
    <text x="142" y="462" fill="#888888" font-family="system-ui, -apple-system, sans-serif" font-size="10" text-anchor="middle">esc</text>
    <text x="162" y="462" fill="#666666" font-family="system-ui, -apple-system, sans-serif" font-size="12">Cerrar</text>

  </g>
</svg>