<svg xmlns="http://www.w3.org/2000/svg" viewBox="0 0 390 844" width="100%" height="100%">
  <defs>
    <linearGradient id="fabGradient" x1="0%" y1="0%" x2="100%" y2="100%">
      <stop offset="0%" stop-color="#58A6FF" stop-opacity="1"/>
      <stop offset="100%" stop-color="#316DCA" stop-opacity="1"/>
    </linearGradient>
    <filter id="fabShadow" x="-30%" y="-30%" width="160%" height="160%">
      <feDropShadow dx="0" dy="8" stdDeviation="12" flood-color="#58A6FF" flood-opacity="0.3"/>
    </filter>
    <filter id="cardShadow" x="-10%" y="-10%" width="120%" height="120%">
      <feDropShadow dx="0" dy="4" stdDeviation="8" flood-color="#000000" flood-opacity="0.5"/>
    </filter>
  </defs>

  <rect width="390" height="844" fill="#050505" />

  <text x="32" y="24" fill="#FFFFFF" font-family="system-ui, -apple-system, sans-serif" font-size="14" font-weight="600">9:41</text>
  <rect x="335" y="14" width="22" height="10" rx="3" fill="transparent" stroke="#FFFFFF" stroke-width="1" opacity="0.5" />
  <rect x="337" y="16" width="16" height="6" rx="1.5" fill="#FFFFFF" />

  <text x="16" y="70" fill="#FFFFFF" font-family="system-ui, -apple-system, sans-serif" font-size="22" font-weight="bold">ProjectFlow</text>
  
  <circle cx="358" cy="63" r="16" fill="#141414" stroke="rgba(255,255,255,0.08)" />
  <circle cx="356" cy="61" r="5" fill="transparent" stroke="#AAAAAA" stroke-width="1.5" />
  <line x1="360" y1="65" x2="363" y2="68" stroke="#AAAAAA" stroke-width="1.5" stroke-linecap="round" />

  <g transform="translate(16, 100)">
    <rect width="358" height="44" rx="10" fill="#111111" stroke="rgba(255,255,255,0.05)" />
    
    <rect x="119" y="4" width="120" height="36" rx="8" fill="#1A1A1A" stroke="rgba(255,255,255,0.1)" />
    <text x="179" y="26" fill="#FFFFFF" font-family="system-ui, -apple-system, sans-serif" font-size="12" font-weight="600" letter-spacing="0.5" text-anchor="middle">HACIENDO</text>
    <circle cx="225" cy="22" r="7" fill="rgba(255,255,255,0.1)" />
    <text x="225" y="26" fill="#EEEEEE" font-family="system-ui, -apple-system, sans-serif" font-size="10" text-anchor="middle">2</text>

    <text x="60" y="26" fill="#666666" font-family="system-ui, -apple-system, sans-serif" font-size="12" font-weight="500" letter-spacing="0.5" text-anchor="middle">IDEAS</text>
    <text x="300" y="26" fill="#666666" font-family="system-ui, -apple-system, sans-serif" font-size="12" font-weight="500" letter-spacing="0.5" text-anchor="middle">HECHO</text>
  </g>

  <g transform="translate(16, 165)">
    
    <g transform="translate(0, 0)" filter="url(#cardShadow)">
      <rect width="358" height="120" rx="12" fill="#141414" stroke="rgba(255,255,255,0.08)" stroke-width="1" />
      
      <circle cx="20" cy="25" r="5" fill="#F85149" />
      
      <text x="38" y="30" fill="#EEEEEE" font-family="system-ui, -apple-system, sans-serif" font-size="16" font-weight="500">Crear componente DuePill</text>
      
      <text x="20" y="60" fill="#AAAAAA" font-family="system-ui, -apple-system, sans-serif" font-size="14">Implementar estilos modulares con CSS y tipar props.</text>
      
      <rect x="20" y="80" width="75" height="24" rx="6" fill="rgba(88,166,255,0.1)" stroke="rgba(88,166,255,0.2)" />
      <text x="57" y="96" fill="#58A6FF" font-family="system-ui, -apple-system, sans-serif" font-size="12" text-anchor="middle">Frontend</text>

      <rect x="105" y="80" width="40" height="24" rx="12" fill="#1A1A1A" stroke="rgba(255,255,255,0.05)" />
      <path d="M 115 88 L 119 94 L 111 94 Z" fill="#666666" />
      <text x="131" y="96" fill="#DDDDDD" font-family="system-ui, -apple-system, sans-serif" font-size="13" font-weight="600" text-anchor="middle">3</text>
    </g>

    <g transform="translate(0, 136)">
      <rect width="358" height="100" rx="12" fill="#0A0A0A" stroke="rgba(255,255,255,0.04)" stroke-width="1" />
      <circle cx="20" cy="25" r="5" fill="#3FB950" />
      <text x="38" y="30" fill="#CCCCCC" font-family="system-ui, -apple-system, sans-serif" font-size="16" font-weight="500">Práctica de listening B1</text>
      <text x="20" y="60" fill="#777777" font-family="system-ui, -apple-system, sans-serif" font-size="14">Crear audios con frases nivel intermedio superior.</text>
    </g>

  </g>

  <g transform="translate(306, 740)" filter="url(#fabShadow)">
    <circle cx="28" cy="28" r="28" fill="url(#fabGradient)" />
    <line x1="28" y1="16" x2="28" y2="40" stroke="#FFFFFF" stroke-width="2.5" stroke-linecap="round" />
    <line x1="16" y1="28" x2="40" y2="28" stroke="#FFFFFF" stroke-width="2.5" stroke-linecap="round" />
  </g>

  <rect x="125" y="820" width="140" height="5" rx="2.5" fill="#333333" />

</svg>